Coordinates
version=1
nRows=18
nColumns=29
inDegrees=yes

Units are S.I. units (second, meters, Newtons, ...)
Angles are in degrees.

endheader
time	pelvis_rz	pelvis_rx	pelvis_ry	pelvis_tx	pelvis_ty	pelvis_tz	hip_flexion_r	hip_adduction_r	hip_rotation_r	knee_angle_r	tp_r3	tp_tx	tp_ty	tp_tz	ankle_angle_r	subtalar_angle_r	mtp_angle_r	hip_flexion_l	hip_adduction_l	hip_rotation_l	knee_angle_l	ltp_r3	ltp_tx	ltp_ty	ltp_tz	ankle_angle_l	subtalar_angle_l	mtp_angle_l
      3.58451852	     -0.78173438	     14.50781318	     82.12996733	     -0.07451675	     -0.07948814	      2.81703601	    -20.47859809	     -9.76744233	      8.28175091	     -5.61956577	      5.81371662	      0.04896219	     -0.02247206	      0.00240000	     17.95088947	     14.90016573	      0.00000000	    -26.35326643	     -0.84957285	     16.05799943	     -0.41955822	      0.44204067	      0.04955562	     -0.02267306	     -0.00240000	     29.77289975	    -19.15999491	      0.00000000
      3.62155556	     -0.59009951	     14.34463459	     82.20399303	     -0.07484618	     -0.07987416	      2.81682681	    -20.35335168	     -9.52107635	      8.16799555	     -5.62697381	      5.82020798	      0.04896129	     -0.02247178	      0.00240000	     17.95302713	     14.87568801	      0.00000000	    -26.26606587	     -1.06871878	     15.42625605	     -0.50266354	      0.54145538	      0.04954677	     -0.02266988	     -0.00240000	     29.74865846	    -19.08933817	      0.00000000
      3.65859259	     -0.35959762	     14.45074340	     82.15582120	     -0.07511267	     -0.07994146	      2.81698198	    -20.46883529	     -9.31250420	      8.67553424	     -5.63022007	      5.82308364	      0.04896090	     -0.02247165	      0.00240000	     17.90126074	     14.52118490	      0.00000000	    -26.46363055	     -1.22655975	     14.61872694	     -0.58828832	      0.64342085	      0.04953763	     -0.02266660	     -0.00240000	     29.72816444	    -19.00818363	      0.00000000
      3.69562963	     -0.36334537	     14.44831511	     82.17781350	     -0.07515823	     -0.08002810	      2.81703174	    -20.46907222	     -9.31094995	      8.66151250	     -5.62851396	      5.82155722	      0.04896110	     -0.02247172	      0.00240000	     17.90058442	     14.52560745	      0.00000000	    -26.48099672	     -1.23624677	     14.59052989	     -0.61091422	      0.67024757	      0.04953520	     -0.02266574	     -0.00240000	     29.71130979	    -19.02131185	      0.00000000
      3.73266667	     -0.24247346	     14.82834201	     82.25713015	     -0.07541669	     -0.07969288	      2.81746420	    -20.91731755	     -9.22023719	      8.23301098	     -5.56921861	      5.76955398	      0.04896833	     -0.02247403	      0.00240000	     17.79133859	     14.70650230	      0.00000000	    -26.86902895	     -1.31611904	     14.15046762	     -0.68124832	      0.75350820	      0.04952767	     -0.02266305	     -0.00240000	     29.69820742	    -18.95517625	      0.00000000
      3.76970370	     -0.23111892	     14.82931877	     82.30332249	     -0.07556607	     -0.07979488	      2.81767865	    -20.90805950	     -9.19491302	      8.22714511	     -5.57766286	      5.77693951	      0.04896730	     -0.02247370	      0.00240000	     17.80131285	     14.71462964	      0.00000000	    -26.88475072	     -1.34042958	     14.10866612	     -0.72267209	      0.80239089	      0.04952323	     -0.02266146	     -0.00240000	     29.67814903	    -18.95962810	      0.00000000
      3.80674074	     -0.09196509	     15.16912788	     82.36500000	     -0.07580418	     -0.07944595	      2.81815679	    -21.26202353	     -9.08605427	      7.51431509	     -5.61532612	      5.81000435	      0.04896271	     -0.02247223	      0.00240000	     17.76821713	     15.26267487	      0.00000000	    -27.20641337	     -1.43030104	     13.57263440	     -0.82088718	      0.91783191	      0.04951268	     -0.02265770	     -0.00240000	     29.66447184	    -18.85024824	      0.00000000
      3.84377778	     -0.11612673	     15.03231714	     82.40426808	     -0.07582398	     -0.07954511	      2.81811586	    -21.11331792	     -9.06036954	      7.96943683	     -5.63200619	      5.82461800	      0.04896068	     -0.02247158	      0.00240000	     17.73389756	     14.79457057	      0.00000000	    -27.05231081	     -1.43671555	     13.55235720	     -0.85238074	      0.95471278	      0.04950929	     -0.02265649	     -0.00240000	     29.65970784	    -18.83510143	      0.00000000
      3.88081481	     -0.10149453	     14.99544345	     82.45304376	     -0.07590678	     -0.07957102	      2.81817288	    -21.08121713	     -9.02335108	      7.84216439	     -5.63237754	      5.82496072	      0.04896063	     -0.02247156	      0.00240000	     17.70103540	     14.85717210	      0.00000000	    -27.00220093	     -1.47226797	     13.50841307	     -0.88553799	      0.99346845	      0.04950572	     -0.02265522	     -0.00240000	     29.65037509	    -18.81102234	      0.00000000
      3.91785185	     -0.10418511	     15.00340452	     82.46813093	     -0.07595308	     -0.07956525	      2.81828954	    -21.07764633	     -9.02348747	      7.83713250	     -5.64187051	      5.83325231	      0.04895948	     -0.02247119	      0.00240000	     17.69787999	     14.86380112	      0.00000000	    -27.00750983	     -1.46833614	     13.49703641	     -0.89236310	      1.00143726	      0.04950498	     -0.02265496	     -0.00240000	     29.63815938	    -18.81628501	      0.00000000
      3.95488889	     -0.09084599	     14.99543681	     82.52426917	     -0.07606208	     -0.07953734	      2.81842633	    -21.04509373	     -9.00058185	      7.28151180	     -5.70254727	      5.88625482	      0.04895207	     -0.02246883	      0.00240000	     17.70525820	     15.34462354	      0.00000000	    -26.96894816	     -1.49621114	     13.41304897	     -0.94373085	      1.06131485	      0.04949944	     -0.02265299	     -0.00240000	     29.63851740	    -18.75629755	      0.00000000
      3.99192593	     -0.04549540	     15.25705216	     82.56818413	     -0.07616829	     -0.07926870	      2.81880373	    -21.33719800	     -8.95857347	      7.49673404	     -5.67039734	      5.85821602	      0.04895600	     -0.02247008	      0.00240000	     17.62125905	     15.02667034	      0.00000000	    -27.22646551	     -1.53121623	     13.48848543	     -0.95864984	      1.07867086	      0.04949783	     -0.02265242	     -0.00240000	     29.63334882	    -18.75077542	      0.00000000
      4.02896296	     -0.04843825	     15.26413843	     82.57967026	     -0.07619913	     -0.07925056	      2.81893693	    -21.33232865	     -8.95856975	      7.49269098	     -5.67747489	      5.86437849	      0.04895513	     -0.02246980	      0.00240000	     17.61894887	     15.03191310	      0.00000000	    -27.22722730	     -1.52764105	     13.48289688	     -0.96278989	      1.08348481	      0.04949738	     -0.02265226	     -0.00240000	     29.62597422	    -18.75147009	      0.00000000
      4.06600000	      0.02961036	     15.22759231	     82.45692525	     -0.07611807	     -0.07922488	      2.81905381	    -21.23138243	     -8.89942318	      8.12640073	     -5.73618376	      5.91556442	      0.04894797	     -0.02246751	      0.00240000	     17.50543845	     14.63167587	      0.00000000	    -27.21069165	     -1.55372686	     13.29358033	     -0.96253263	      1.08318918	      0.04949741	     -0.02265227	     -0.00240000	     29.62822845	    -18.66655600	      0.00000000
      4.10303704	      0.02240913	     15.23558462	     82.48029636	     -0.07618377	     -0.07919887	      2.81917384	    -21.23321428	     -8.90116646	      8.10915463	     -5.74065670	      5.91943750	      0.04894742	     -0.02246734	      0.00240000	     17.50963385	     14.63184768	      0.00000000	    -27.20651801	     -1.55048656	     13.29759367	     -0.96550536	      1.08664611	      0.04949709	     -0.02265215	     -0.00240000	     29.62118753	    -18.67602842	      0.00000000
      4.14007407	      0.04359695	     15.18311102	     82.77641023	     -0.07662783	     -0.07930622	      2.81931735	    -21.23371087	     -8.78160273	      7.03119202	     -5.74504291	      5.92325189	      0.04894688	     -0.02246717	      0.00240000	     17.49882526	     15.20250905	      0.00000000	    -27.06578189	     -1.68079738	     13.23503106	     -1.19654697	      1.35349686	      0.04947205	     -0.02264329	     -0.00240000	     29.58805874	    -18.59403028	      0.00000000
      4.17711111	      0.04168202	     15.19149518	     82.78611920	     -0.07665969	     -0.07928681	      2.81944577	    -21.22943545	     -8.78042978	      7.02786561	     -5.75234083	      5.92964811	      0.04894599	     -0.02246688	      0.00240000	     17.49421168	     15.20547773	      0.00000000	    -27.06905129	     -1.67686848	     13.23374388	     -1.19999497	      1.35741378	      0.04947168	     -0.02264316	     -0.00240000	     29.57907703	    -18.59343533	      0.00000000
      4.21414815	      0.04411364	     15.20010745	     82.79647294	     -0.07669267	     -0.07926501	      2.81956222	    -21.22631946	     -8.77453498	      7.02343728	     -5.76099959	      5.93711784	      0.04894493	     -0.02246654	      0.00240000	     17.48878146	     15.20730391	      0.00000000	    -27.07015411	     -1.67855870	     13.23572695	     -1.20761505	      1.36615350	      0.04947085	     -0.02264287	     -0.00240000	     29.57414298	    -18.58705202	      0.00000000
